STARTFONT 2.1
FONT -MIT-25VGH KST-Medium-R-Normal--25-9-200-200-P-14-ISO8859-1
SIZE 9 200 200
FONTBOUNDINGBOX 21 25 -3 -5
STARTPROPERTIES 17
ADD_STYLE_NAME ""
AVERAGE_WIDTH 14
CHARSET_ENCODING "1"
CHARSET_REGISTRY "ISO8859"
DEFAULT_CHAR 0
FAMILY "25VGH KST"
FONT_ASCENT 20
FONT_DESCENT 5
FOUNDRY "MIT"
PIXEL_SIZE 25
POINT_SIZE 9
RESOLUTION_X 200
RESOLUTION_Y 200
SETWIDTH_NAME "Normal"
SLANT "R"
SPACING "P"
WEIGHT_NAME "Medium"
ENDPROPERTIES
CHARS 116
STARTCHAR char1
ENCODING 1
SWIDTH 1554 0
DWIDTH 14 0
BBX 10 25 1 -5
BITMAP
0000
0180
0300
0600
0C00
0000
0000
1F00
7F80
61C0
C0C0
00C0
0FC0
3FC0
F8C0
E0C0
C0C0
E3C0
FEC0
3CC0
0000
0000
0000
0000
0000
ENDCHAR
STARTCHAR char2
ENCODING 2
SWIDTH 1665 0
DWIDTH 15 0
BBX 12 25 0 -5
BITMAP
0000
00C0
0180
0300
0600
0000
0000
1F80
3FC0
70E0
E060
C030
FFF0
FFF0
C000
C000
C030
F0E0
7FC0
1F80
0000
0000
0000
0000
0000
ENDCHAR
STARTCHAR char4
ENCODING 4
SWIDTH 777 0
DWIDTH 7 0
BBX 5 25 1 -5
BITMAP
00
18
30
60
C0
00
00
C0
C0
C0
C0
C0
C0
C0
C0
C0
C0
C0
C0
C0
00
00
00
00
00
ENDCHAR
STARTCHAR char5
ENCODING 5
SWIDTH 1665 0
DWIDTH 15 0
BBX 12 25 0 -5
BITMAP
0000
00C0
0180
0300
0600
0000
0F00
3FC0
79E0
6060
E070
C030
C030
C030
C030
E070
E070
79E0
3FC0
0F00
0000
0000
0000
0000
0000
ENDCHAR
STARTCHAR char6
ENCODING 6
SWIDTH 1665 0
DWIDTH 15 0
BBX 11 25 1 -5
BITMAP
0000
00C0
0180
0300
0600
0000
0000
C060
C060
C060
C060
C060
C060
C060
C060
C060
C060
E0E0
7FE0
3F60
0000
0000
0000
0000
0000
ENDCHAR
STARTCHAR char7
ENCODING 7
SWIDTH 1665 0
DWIDTH 15 0
BBX 12 25 0 -5
BITMAP
0000
30C0
30C0
30C0
0000
0000
0F00
3FC0
79E0
6060
E070
C030
C030
C030
C030
E070
E070
79E0
3FC0
0F00
0000
0000
0000
0000
0000
ENDCHAR
STARTCHAR char14
ENCODING 14
SWIDTH 1665 0
DWIDTH 15 0
BBX 13 25 0 -5
BITMAP
0000
0318
0630
0C60
18C0
0000
0F00
3FC0
79E0
6060
E070
C030
C030
C030
C030
E070
E070
79E0
3FC0
0F00
0000
0000
0000
0000
0000
ENDCHAR
STARTCHAR char15
ENCODING 15
SWIDTH 1665 0
DWIDTH 15 0
BBX 13 25 1 -5
BITMAP
0000
0318
0630
0C60
18C0
0000
0000
C060
C060
C060
C060
C060
C060
C060
C060
C060
C060
E0E0
7FE0
3F60
0000
0000
0000
0000
0000
ENDCHAR
STARTCHAR char18
ENCODING 18
SWIDTH 1110 0
DWIDTH 10 0
BBX 6 25 1 -5
BITMAP
0C
18
30
00
FC
FC
30
30
30
30
30
30
30
30
30
30
30
30
FC
FC
00
00
00
00
00
ENDCHAR
STARTCHAR char19
ENCODING 19
SWIDTH 1887 0
DWIDTH 17 0
BBX 15 25 0 -5
BITMAP
0060
00C0
0180
0000
07C0
1FF0
3838
3018
600C
E00E
C006
C006
C006
C006
E00E
600C
3018
3838
1FF0
07C0
0000
0000
0000
0000
0000
ENDCHAR
STARTCHAR char20
ENCODING 20
SWIDTH 1887 0
DWIDTH 17 0
BBX 14 25 1 -5
BITMAP
00C0
0180
0300
0000
C00C
C00C
C00C
C00C
C00C
C00C
C00C
C00C
C00C
C00C
C00C
C00C
E01C
7038
7FF8
1FC0
0000
0000
0000
0000
0000
ENDCHAR
STARTCHAR char21
ENCODING 21
SWIDTH 1887 0
DWIDTH 17 0
BBX 15 25 0 -5
BITMAP
3018
3018
3018
07C0
1FF0
3838
3018
600C
E00E
C006
C006
C006
C006
C006
E00E
600C
3018
3838
1FF0
07C0
0000
0000
0000
0000
0000
ENDCHAR
STARTCHAR char22
ENCODING 22
SWIDTH 1887 0
DWIDTH 17 0
BBX 14 25 1 -5
BITMAP
1860
1860
1860
0000
C00C
C00C
C00C
C00C
C00C
C00C
C00C
C00C
C00C
C00C
C00C
C00C
E01C
7038
7FF8
1FC0
0000
0000
0000
0000
0000
ENDCHAR
STARTCHAR char23
ENCODING 23
SWIDTH 1887 0
DWIDTH 17 0
BBX 16 25 0 -5
BITMAP
0303
0606
0C0C
1818
07C0
1FF0
3838
3018
600C
E00E
C006
C006
C006
C006
E00E
600C
3018
3838
1FF0
07C0
0000
0000
0000
0000
0000
ENDCHAR
STARTCHAR char24
ENCODING 24
SWIDTH 1887 0
DWIDTH 17 0
BBX 14 25 1 -5
BITMAP
030C
0618
0C30
1860
C00C
C00C
C00C
C00C
C00C
C00C
C00C
C00C
C00C
C00C
C00C
C00C
E01C
7038
7FF8
1FC0
0000
0000
0000
0000
0000
ENDCHAR
STARTCHAR char25
ENCODING 25
SWIDTH 1998 0
DWIDTH 18 0
BBX 16 25 0 -5
BITMAP
0030
0060
00C0
0180
0000
03C0
07E0
0E70
0C30
0C30
1818
1818
1818
3FFC
3FFC
300C
6006
6006
E007
C003
0000
0000
0000
0000
0000
ENDCHAR
STARTCHAR char26
ENCODING 26
SWIDTH 1776 0
DWIDTH 16 0
BBX 12 25 1 -5
BITMAP
0000
0000
0030
0030
0060
0060
00C0
00C0
0180
FFF0
FFF0
0300
0600
FFF0
FFF0
1800
3000
3000
6000
6000
C000
C000
0000
0000
0000
ENDCHAR
STARTCHAR char27
ENCODING 27
SWIDTH 1776 0
DWIDTH 16 0
BBX 14 25 0 -5
BITMAP
0000
0000
0000
0000
0000
0000
0000
0000
1C04
3E04
7F0C
6798
C3F8
81F0
80E0
0000
0000
0000
0000
0000
0000
0000
0000
0000
0000
ENDCHAR
STARTCHAR char28
ENCODING 28
SWIDTH 1665 0
DWIDTH 15 0
BBX 12 25 1 -5
BITMAP
0180
0300
0600
0000
FFF0
FFF0
C000
C000
C000
C000
C000
FF80
FF80
C000
C000
C000
C000
C000
FFF0
FFF0
0000
0000
0000
0000
0000
ENDCHAR
STARTCHAR char29
ENCODING 29
SWIDTH 1554 0
DWIDTH 14 0
BBX 12 25 0 -5
BITMAP
0000
0000
0000
0000
C000
F000
3C00
0F00
03C0
00F0
00F0
03C0
0F00
3C00
F000
C000
0000
0000
FFF0
FFF0
0000
0000
0000
0000
0000
ENDCHAR
STARTCHAR char30
ENCODING 30
SWIDTH 1665 0
DWIDTH 15 0
BBX 11 25 1 -5
BITMAP
0000
3180
3180
3180
0000
0000
0000
C060
C060
C060
C060
C060
C060
C060
C060
C060
C060
E0E0
7FE0
3F60
0000
0000
0000
0000
0000
ENDCHAR
STARTCHAR char31
ENCODING 31
SWIDTH 1887 0
DWIDTH 17 0
BBX 15 25 0 -5
BITMAP
0000
0000
0000
0000
0000
0000
C006
C006
600C
600C
3018
3018
1830
1830
0C60
0C60
06C0
06C0
0380
0100
0000
0000
0000
0000
0000
ENDCHAR
STARTCHAR char32
ENCODING 32
SWIDTH 1110 0
DWIDTH 10 0
BBX 1 25 0 -5
BITMAP
00
00
00
00
00
00
00
00
00
00
00
00
00
00
00
00
00
00
00
00
00
00
00
00
00
ENDCHAR
STARTCHAR char33
ENCODING 33
SWIDTH 777 0
DWIDTH 7 0
BBX 4 25 1 -5
BITMAP
00
60
F0
F0
F0
F0
F0
60
60
60
60
60
60
00
00
00
60
F0
F0
60
00
00
00
00
00
ENDCHAR
STARTCHAR char34
ENCODING 34
SWIDTH 1221 0
DWIDTH 11 0
BBX 8 25 1 -5
BITMAP
E7
E7
E7
E7
E7
E7
42
00
00
00
00
00
00
00
00
00
00
00
00
00
00
00
00
00
00
ENDCHAR
STARTCHAR char35
ENCODING 35
SWIDTH 1776 0
DWIDTH 16 0
BBX 13 25 1 -5
BITMAP
0000
0000
0000
0000
0000
0000
18C0
18C0
18C0
FFF8
FFF8
18C0
18C0
18C0
FFF8
FFF8
18C0
18C0
18C0
0000
0000
0000
0000
0000
0000
ENDCHAR
STARTCHAR char36
ENCODING 36
SWIDTH 1443 0
DWIDTH 13 0
BBX 11 25 0 -5
BITMAP
0900
0F80
39C0
2940
6960
6960
6960
7900
7D00
3F00
1F80
0BC0
09E0
6960
E920
E960
4960
69C0
3F80
0900
0900
0900
0000
0000
0000
ENDCHAR
STARTCHAR char37
ENCODING 37
SWIDTH 1665 0
DWIDTH 15 0
BBX 13 25 0 -5
BITMAP
0000
0018
7830
FC30
CC60
CC60
CCC0
FCC0
7980
0180
0300
0300
0600
06F0
0DF8
0D98
1998
1998
31F8
30F0
0000
0000
0000
0000
0000
ENDCHAR
STARTCHAR char38
ENCODING 38
SWIDTH 2109 0
DWIDTH 19 0
BBX 17 25 0 -5
BITMAP
000000
03C000
0EF000
0C7000
183800
1C3000
1C7000
0EE000
0F8000
0F0F80
3F0200
738200
61C200
E1C600
E0E400
E0E400
F07800
F03800
787C00
3FCF00
0E0000
000000
000000
000000
000000
ENDCHAR
STARTCHAR char39
ENCODING 39
SWIDTH 777 0
DWIDTH 7 0
BBX 5 25 0 -5
BITMAP
00
F0
F8
D8
08
18
30
60
00
00
00
00
00
00
00
00
00
00
00
00
00
00
00
00
00
ENDCHAR
STARTCHAR char40
ENCODING 40
SWIDTH 999 0
DWIDTH 9 0
BBX 6 25 0 -5
BITMAP
04
0C
18
18
30
30
60
60
60
E0
C0
C0
C0
E0
60
60
60
30
30
18
18
0C
04
00
00
ENDCHAR
STARTCHAR char41
ENCODING 41
SWIDTH 999 0
DWIDTH 9 0
BBX 6 25 1 -5
BITMAP
80
C0
60
60
30
30
18
18
18
1C
0C
0C
0C
1C
18
18
18
30
30
60
60
C0
80
00
00
ENDCHAR
STARTCHAR char42
ENCODING 42
SWIDTH 1443 0
DWIDTH 13 0
BBX 11 25 0 -5
BITMAP
0000
0000
0000
0000
0000
0400
0E00
0E00
E4E0
F5E0
3F80
0E00
0E00
3F80
F5E0
E4E0
0E00
0E00
0400
0000
0000
0000
0000
0000
0000
ENDCHAR
STARTCHAR char43
ENCODING 43
SWIDTH 1665 0
DWIDTH 15 0
BBX 12 25 1 -5
BITMAP
0000
0000
0000
0000
0000
0000
0600
0600
0600
0600
0600
FFF0
FFF0
0600
0600
0600
0600
0600
0000
0000
0000
0000
0000
0000
0000
ENDCHAR
STARTCHAR char44
ENCODING 44
SWIDTH 666 0
DWIDTH 6 0
BBX 4 25 0 -5
BITMAP
00
00
00
00
00
00
00
00
00
00
00
00
00
00
00
00
60
F0
F0
30
30
70
60
C0
80
ENDCHAR
STARTCHAR char45
ENCODING 45
SWIDTH 1443 0
DWIDTH 13 0
BBX 10 25 1 -5
BITMAP
0000
0000
0000
0000
0000
0000
0000
0000
0000
0000
0000
FFC0
FFC0
0000
0000
0000
0000
0000
0000
0000
0000
0000
0000
0000
0000
ENDCHAR
STARTCHAR char46
ENCODING 46
SWIDTH 666 0
DWIDTH 6 0
BBX 4 25 0 -5
BITMAP
00
00
00
00
00
00
00
00
00
00
00
00
00
00
00
00
00
E0
F0
E0
00
00
00
00
00
ENDCHAR
STARTCHAR char47
ENCODING 47
SWIDTH 1443 0
DWIDTH 13 0
BBX 10 25 1 -5
BITMAP
00C0
01C0
0180
0180
0380
0300
0300
0700
0600
0600
0E00
0C00
0C00
1C00
1800
1800
3800
3000
3000
7000
6000
6000
E000
C000
C000
ENDCHAR
STARTCHAR char48
ENCODING 48
SWIDTH 1776 0
DWIDTH 16 0
BBX 13 25 0 -5
BITMAP
0000
0F80
1FC0
38E0
7070
6030
E038
C018
C018
C018
C018
C018
C018
C018
E038
6030
7070
38E0
1FC0
0F80
0000
0000
0000
0000
0000
ENDCHAR
STARTCHAR char49
ENCODING 49
SWIDTH 1776 0
DWIDTH 16 0
BBX 8 25 3 -5
BITMAP
00
18
38
F8
18
18
18
18
18
18
18
18
18
18
18
18
18
18
FF
FF
00
00
00
00
00
ENDCHAR
STARTCHAR char50
ENCODING 50
SWIDTH 1776 0
DWIDTH 16 0
BBX 12 25 1 -5
BITMAP
0000
0F00
3FC0
78E0
E070
C030
C030
0030
0070
00E0
03C0
0780
0E00
1C00
3800
7000
6000
E000
FFF0
FFF0
0000
0000
0000
0000
0000
ENDCHAR
STARTCHAR char51
ENCODING 51
SWIDTH 1776 0
DWIDTH 16 0
BBX 13 25 0 -5
BITMAP
0000
1FC0
3FE0
7070
E038
C018
C018
0018
0038
01F0
0FC0
01F0
0038
0018
C018
C018
E038
7070
3FE0
1FC0
0000
0000
0000
0000
0000
ENDCHAR
STARTCHAR char52
ENCODING 52
SWIDTH 1776 0
DWIDTH 16 0
BBX 14 25 0 -5
BITMAP
0000
01F0
03F0
0330
0630
0630
0C30
0C30
1830
1830
3030
3030
6030
7FFC
FFFC
0030
0030
0030
0030
0030
0000
0000
0000
0000
0000
ENDCHAR
STARTCHAR char53
ENCODING 53
SWIDTH 1776 0
DWIDTH 16 0
BBX 13 25 0 -5
BITMAP
0000
FFF0
FFF0
C000
C000
C000
C000
CFC0
DFE0
F870
F030
E018
0018
0018
0018
0018
C038
E070
7FE0
3FC0
0000
0000
0000
0000
0000
ENDCHAR
STARTCHAR char54
ENCODING 54
SWIDTH 1776 0
DWIDTH 16 0
BBX 12 25 1 -5
BITMAP
0000
0F80
1FE0
3860
3000
6000
6000
E000
CF00
DFC0
F9E0
E060
E070
C030
C030
E070
6060
79E0
3FC0
0F00
0000
0000
0000
0000
0000
ENDCHAR
STARTCHAR char55
ENCODING 55
SWIDTH 1776 0
DWIDTH 16 0
BBX 12 25 1 -5
BITMAP
0000
FFF0
FFF0
0030
0060
0060
00C0
00C0
0180
0180
0300
0300
0600
0600
0C00
0C00
1800
1800
3000
7000
0000
0000
0000
0000
0000
ENDCHAR
STARTCHAR char56
ENCODING 56
SWIDTH 1776 0
DWIDTH 16 0
BBX 14 25 0 -5
BITMAP
0000
0FC0
3FF0
3030
6018
6018
6018
3030
3CF0
0FC0
0780
1FE0
7878
6018
C00C
C00C
E01C
7038
7FF8
1FE0
0000
0000
0000
0000
0000
ENDCHAR
STARTCHAR char57
ENCODING 57
SWIDTH 1776 0
DWIDTH 16 0
BBX 12 25 1 -5
BITMAP
0000
0F00
3FC0
79E0
6060
E070
C030
C030
E070
6070
79F0
3FB0
0F30
0070
0060
0060
00E0
E1C0
7F80
1F00
0000
0000
0000
0000
0000
ENDCHAR
STARTCHAR char58
ENCODING 58
SWIDTH 777 0
DWIDTH 7 0
BBX 4 25 1 -5
BITMAP
00
00
00
00
00
00
00
00
60
F0
F0
60
00
00
00
00
60
F0
F0
60
00
00
00
00
00
ENDCHAR
STARTCHAR char59
ENCODING 59
SWIDTH 666 0
DWIDTH 6 0
BBX 4 25 0 -5
BITMAP
00
00
00
00
00
00
00
00
60
F0
F0
60
00
00
00
60
F0
F0
30
30
70
60
C0
80
00
ENDCHAR
STARTCHAR char60
ENCODING 60
SWIDTH 1554 0
DWIDTH 14 0
BBX 12 25 0 -5
BITMAP
0000
0000
0000
0000
0030
00F0
03C0
0F00
3C00
F000
F000
3C00
0F00
03C0
00F0
0030
0000
0000
0000
0000
0000
0000
0000
0000
0000
ENDCHAR
STARTCHAR char61
ENCODING 61
SWIDTH 1776 0
DWIDTH 16 0
BBX 13 25 1 -5
BITMAP
0000
0000
0000
0000
0000
0000
0000
0000
0000
FFF8
FFF8
0000
0000
FFF8
FFF8
0000
0000
0000
0000
0000
0000
0000
0000
0000
0000
ENDCHAR
STARTCHAR char62
ENCODING 62
SWIDTH 1554 0
DWIDTH 14 0
BBX 12 25 0 -5
BITMAP
0000
0000
0000
0000
C000
F000
3C00
0F00
03C0
00F0
00F0
03C0
0F00
3C00
F000
C000
0000
0000
0000
0000
0000
0000
0000
0000
0000
ENDCHAR
STARTCHAR char63
ENCODING 63
SWIDTH 1221 0
DWIDTH 11 0
BBX 9 25 0 -5
BITMAP
0000
3E00
6700
C100
E180
E380
4380
0780
0F00
1E00
1C00
1800
1000
1000
1000
0000
0000
1800
3C00
1800
0000
0000
0000
0000
0000
ENDCHAR
STARTCHAR char64
ENCODING 64
SWIDTH 2220 0
DWIDTH 20 0
BBX 17 25 1 -5
BITMAP
000000
000000
000000
000000
000000
0FFC00
1FFE00
300700
600380
C3C180
C7E180
CE7180
CC3180
CC3180
CC3180
CC3180
CFFF00
C7FE00
E00000
7FFF80
3FFF80
000000
000000
000000
000000
ENDCHAR
STARTCHAR char65
ENCODING 65
SWIDTH 1998 0
DWIDTH 18 0
BBX 16 25 0 -5
BITMAP
0000
03C0
03C0
03C0
0660
0660
0660
0C30
0C30
0C30
1818
1818
1818
3FFC
3FFC
300C
6006
6006
E007
C003
0000
0000
0000
0000
0000
ENDCHAR
STARTCHAR char66
ENCODING 66
SWIDTH 1887 0
DWIDTH 17 0
BBX 14 25 1 -5
BITMAP
0000
FFE0
FFF8
C07C
C01C
C00C
C00C
C01C
C07C
FFF8
FFE0
C078
C01C
C01C
C00C
C00C
C01C
C07C
FFF8
FFE0
0000
0000
0000
0000
0000
ENDCHAR
STARTCHAR char67
ENCODING 67
SWIDTH 1887 0
DWIDTH 17 0
BBX 15 25 0 -5
BITMAP
0000
07E0
1FF8
3C3C
700C
600E
E006
C000
C000
C000
C000
C000
C000
C000
E006
600E
700C
3C3C
1FF8
07E0
0000
0000
0000
0000
0000
ENDCHAR
STARTCHAR char68
ENCODING 68
SWIDTH 1887 0
DWIDTH 17 0
BBX 14 25 1 -5
BITMAP
0000
FFC0
FFE0
C0F8
C038
C01C
C01C
C00C
C00C
C00C
C00C
C00C
C00C
C00C
C00C
C01C
C038
C0F8
FFE0
FFC0
0000
0000
0000
0000
0000
ENDCHAR
STARTCHAR char69
ENCODING 69
SWIDTH 1665 0
DWIDTH 15 0
BBX 12 25 1 -5
BITMAP
0000
FFF0
FFF0
C000
C000
C000
C000
C000
C000
FF80
FF80
C000
C000
C000
C000
C000
C000
C000
FFF0
FFF0
0000
0000
0000
0000
0000
ENDCHAR
STARTCHAR char70
ENCODING 70
SWIDTH 1665 0
DWIDTH 15 0
BBX 12 25 1 -5
BITMAP
0000
FFF0
FFF0
C000
C000
C000
C000
C000
C000
FF80
FF80
C000
C000
C000
C000
C000
C000
C000
C000
C000
0000
0000
0000
0000
0000
ENDCHAR
STARTCHAR char71
ENCODING 71
SWIDTH 1998 0
DWIDTH 18 0
BBX 15 25 1 -5
BITMAP
0000
1FF0
3FF8
783C
600E
E006
C006
C000
C000
C000
C000
C0FE
C0FE
C006
C006
E00E
601E
783E
3FF6
1FE6
0000
0000
0000
0000
0000
ENDCHAR
STARTCHAR char72
ENCODING 72
SWIDTH 1776 0
DWIDTH 16 0
BBX 13 25 1 -5
BITMAP
0000
C018
C018
C018
C018
C018
C018
C018
C018
C018
FFF8
FFF8
C018
C018
C018
C018
C018
C018
C018
C018
0000
0000
0000
0000
0000
ENDCHAR
STARTCHAR char73
ENCODING 73
SWIDTH 1110 0
DWIDTH 10 0
BBX 6 25 1 -5
BITMAP
00
FC
FC
30
30
30
30
30
30
30
30
30
30
30
30
30
30
30
FC
FC
00
00
00
00
00
ENDCHAR
STARTCHAR char74
ENCODING 74
SWIDTH 1332 0
DWIDTH 12 0
BBX 10 25 0 -5
BITMAP
0000
00C0
00C0
00C0
00C0
00C0
00C0
00C0
00C0
00C0
00C0
00C0
00C0
00C0
00C0
00C0
C0C0
E1C0
7F80
3F00
0000
0000
0000
0000
0000
ENDCHAR
STARTCHAR char75
ENCODING 75
SWIDTH 1776 0
DWIDTH 16 0
BBX 13 25 1 -5
BITMAP
0000
C018
C038
C070
C0E0
C1C0
C380
C700
CE00
DC00
FC00
FE00
E700
C380
C180
C0C0
C0E0
C060
C030
C030
0000
0000
0000
0000
0000
ENDCHAR
STARTCHAR char76
ENCODING 76
SWIDTH 1554 0
DWIDTH 14 0
BBX 11 25 1 -5
BITMAP
0000
C000
C000
C000
C000
C000
C000
C000
C000
C000
C000
C000
C000
C000
C000
C000
C000
C000
FFE0
FFE0
0000
0000
0000
0000
0000
ENDCHAR
STARTCHAR char77
ENCODING 77
SWIDTH 2331 0
DWIDTH 21 0
BBX 18 25 1 -5
BITMAP
000000
C000C0
C000C0
E000C0
E001C0
E001C0
F003C0
F003C0
F807C0
DC06C0
DC0EC0
CC0CC0
CE1CC0
C618C0
C738C0
C330C0
C3F0C0
C1E0C0
C1E0C0
C0C0C0
000000
000000
000000
000000
000000
ENDCHAR
STARTCHAR char78
ENCODING 78
SWIDTH 1887 0
DWIDTH 17 0
BBX 14 25 1 -5
BITMAP
0000
F00C
F00C
F80C
D80C
CC0C
CC0C
C60C
C60C
C30C
C30C
C18C
C18C
C0CC
C0CC
C06C
C06C
C03C
C03C
C01C
0000
0000
0000
0000
0000
ENDCHAR
STARTCHAR char79
ENCODING 79
SWIDTH 1887 0
DWIDTH 17 0
BBX 15 25 0 -5
BITMAP
0000
07C0
1FF0
3838
3018
600C
E00E
C006
C006
C006
C006
C006
C006
C006
C006
E00E
600C
3018
3838
1FF0
07C0
0000
0000
0000
0000
ENDCHAR
STARTCHAR char80
ENCODING 80
SWIDTH 1776 0
DWIDTH 16 0
BBX 13 25 1 -5
BITMAP
0000
FFE0
FFF0
C070
C038
C018
C018
C018
C038
C070
FFF0
FFC0
C000
C000
C000
C000
C000
C000
C000
C000
0000
0000
0000
0000
0000
ENDCHAR
STARTCHAR char81
ENCODING 81
SWIDTH 1887 0
DWIDTH 17 0
BBX 15 25 0 -5
BITMAP
0000
07C0
1FF0
3838
3018
600C
E00E
C006
C006
C006
C006
C006
C006
C006
C006
E00E
600C
3018
3838
1FF0
07C0
00E0
00FC
003C
0000
ENDCHAR
STARTCHAR char82
ENCODING 82
SWIDTH 1776 0
DWIDTH 16 0
BBX 13 25 1 -5
BITMAP
0000
FFE0
FFF0
C070
C038
C018
C018
C018
C038
C070
FFF0
FFC0
C180
C180
C0C0
C0E0
C060
C030
C030
C018
0000
0000
0000
0000
0000
ENDCHAR
STARTCHAR char83
ENCODING 83
SWIDTH 1776 0
DWIDTH 16 0
BBX 12 25 1 -5
BITMAP
0000
0F00
3FC0
79E0
E070
C030
C000
C000
E000
7000
7F80
1FE0
00E0
0070
0030
0030
C030
E070
79E0
3FC0
0F00
0000
0000
0000
0000
ENDCHAR
STARTCHAR char84
ENCODING 84
SWIDTH 1776 0
DWIDTH 16 0
BBX 14 25 0 -5
BITMAP
0000
FFFC
FFFC
0300
0300
0300
0300
0300
0300
0300
0300
0300
0300
0300
0300
0300
0300
0300
0300
0300
0000
0000
0000
0000
0000
ENDCHAR
STARTCHAR char85
ENCODING 85
SWIDTH 1887 0
DWIDTH 17 0
BBX 14 25 1 -5
BITMAP
0000
C00C
C00C
C00C
C00C
C00C
C00C
C00C
C00C
C00C
C00C
C00C
C00C
C00C
C00C
C00C
E01C
7038
7FF8
1FE0
0000
0000
0000
0000
0000
ENDCHAR
STARTCHAR char86
ENCODING 86
SWIDTH 1887 0
DWIDTH 17 0
BBX 15 25 0 -5
BITMAP
0000
C006
C006
E00E
600C
701C
3018
3018
3838
1830
1830
1C70
0C60
0C60
0EE0
06C0
06C0
07C0
0380
0380
0000
0000
0000
0000
0000
ENDCHAR
STARTCHAR char87
ENCODING 87
SWIDTH 2553 0
DWIDTH 23 0
BBX 21 25 0 -5
BITMAP
000000
C07018
C07018
C07018
C07018
E0F838
E0D838
60D830
60D830
71DC70
71DC70
318C60
318C60
3B8EE0
3B8EE0
1B06C0
1B06C0
1F07C0
0E0380
0E0380
000000
000000
000000
000000
000000
ENDCHAR
STARTCHAR char88
ENCODING 88
SWIDTH 1776 0
DWIDTH 16 0
BBX 13 25 0 -5
BITMAP
0000
C018
C018
E038
7070
3060
38E0
1DC0
0F80
0F80
0700
0F80
0F80
1DC0
38E0
3060
7070
E038
C018
C018
0000
0000
0000
0000
0000
ENDCHAR
STARTCHAR char89
ENCODING 89
SWIDTH 1776 0
DWIDTH 16 0
BBX 14 25 0 -5
BITMAP
0000
C00C
C00C
E01C
7038
3030
3870
1CE0
0FC0
0FC0
0780
0780
0300
0300
0300
0300
0300
0300
0300
0300
0000
0000
0000
0000
0000
ENDCHAR
STARTCHAR char90
ENCODING 90
SWIDTH 1665 0
DWIDTH 15 0
BBX 12 25 1 -5
BITMAP
0000
FFF0
FFF0
0060
00E0
00C0
0180
0180
0300
0300
0600
0600
0C00
0C00
1800
3800
3000
7000
FFF0
FFF0
0000
0000
0000
0000
0000
ENDCHAR
STARTCHAR char91
ENCODING 91
SWIDTH 1110 0
DWIDTH 10 0
BBX 7 25 1 -5
BITMAP
FE
FE
C0
C0
C0
C0
C0
C0
C0
C0
C0
C0
C0
C0
C0
C0
C0
C0
C0
C0
C0
C0
C0
FE
FE
ENDCHAR
STARTCHAR char92
ENCODING 92
SWIDTH 1443 0
DWIDTH 13 0
BBX 10 25 1 -5
BITMAP
C000
E000
6000
6000
7000
3000
3000
3800
1800
1800
1C00
0C00
0C00
0E00
0600
0600
0700
0300
0300
0380
0180
0180
01C0
00C0
00C0
ENDCHAR
STARTCHAR char93
ENCODING 93
SWIDTH 1110 0
DWIDTH 10 0
BBX 7 25 1 -5
BITMAP
FE
FE
06
06
06
06
06
06
06
06
06
06
06
06
06
06
06
06
06
06
06
06
06
FE
FE
ENDCHAR
STARTCHAR char95
ENCODING 95
SWIDTH 1776 0
DWIDTH 16 0
BBX 16 25 0 -5
BITMAP
0000
0000
0000
0000
0000
0000
0000
0000
0000
0000
0000
0000
0000
0000
0000
0000
0000
0000
0000
0000
0000
FFFF
FFFF
0000
0000
ENDCHAR
STARTCHAR char96
ENCODING 96
SWIDTH 777 0
DWIDTH 7 0
BBX 5 25 0 -5
BITMAP
00
70
F8
F0
80
C0
60
30
18
00
00
00
00
00
00
00
00
00
00
00
00
00
00
00
00
ENDCHAR
STARTCHAR char97
ENCODING 97
SWIDTH 1554 0
DWIDTH 14 0
BBX 10 25 1 -5
BITMAP
0000
0000
0000
0000
0000
0000
0000
1F00
7F80
61C0
C0C0
00C0
0FC0
3FC0
F8C0
E0C0
C0C0
E3C0
FEC0
3CC0
0000
0000
0000
0000
0000
ENDCHAR
STARTCHAR char98
ENCODING 98
SWIDTH 1776 0
DWIDTH 16 0
BBX 12 25 1 -5
BITMAP
0000
C000
C000
C000
C000
C000
C000
CF80
DFC0
F0E0
E060
C070
C030
C030
C030
C070
E060
F0E0
DFC0
CF80
0000
0000
0000
0000
0000
ENDCHAR
STARTCHAR char99
ENCODING 99
SWIDTH 1443 0
DWIDTH 13 0
BBX 10 25 0 -5
BITMAP
0000
0000
0000
0000
0000
0000
0000
1F00
3F80
70C0
6040
E000
C000
C000
C000
E000
6040
70C0
3F80
1F00
0000
0000
0000
0000
0000
ENDCHAR
STARTCHAR char100
ENCODING 100
SWIDTH 1665 0
DWIDTH 15 0
BBX 12 25 0 -5
BITMAP
0000
0030
0030
0030
0030
0030
0030
1F30
3FF0
70F0
6070
E030
C030
C030
C030
E030
6070
70F0
3FF0
1F30
0000
0000
0000
0000
0000
ENDCHAR
STARTCHAR char101
ENCODING 101
SWIDTH 1665 0
DWIDTH 15 0
BBX 12 25 0 -5
BITMAP
0000
0000
0000
0000
0000
0000
0000
1F80
3FC0
70E0
E060
C030
FFF0
FFF0
C000
C000
C030
F0E0
7FC0
1F80
0000
0000
0000
0000
0000
ENDCHAR
STARTCHAR char102
ENCODING 102
SWIDTH 1110 0
DWIDTH 10 0
BBX 7 25 0 -5
BITMAP
00
0E
1E
18
30
30
30
FE
FE
30
30
30
30
30
30
30
30
30
30
30
00
00
00
00
00
ENDCHAR
STARTCHAR char103
ENCODING 103
SWIDTH 1665 0
DWIDTH 15 0
BBX 12 25 0 -5
BITMAP
0000
0000
0000
0000
0000
0000
0000
1F70
7FE0
E180
C0C0
C0C0
C0C0
61C0
7F80
3F00
E000
4000
3FE0
E7F0
C030
C030
6070
7FE0
3F80
ENDCHAR
STARTCHAR char104
ENCODING 104
SWIDTH 1665 0
DWIDTH 15 0
BBX 11 25 1 -5
BITMAP
0000
C000
C000
C000
C000
C000
C000
CF80
DFC0
F0E0
E060
C060
C060
C060
C060
C060
C060
C060
C060
C060
0000
0000
0000
0000
0000
ENDCHAR
STARTCHAR char105
ENCODING 105
SWIDTH 777 0
DWIDTH 7 0
BBX 2 25 1 -5
BITMAP
00
C0
C0
C0
00
00
00
C0
C0
C0
C0
C0
C0
C0
C0
C0
C0
C0
C0
C0
00
00
00
00
00
ENDCHAR
STARTCHAR char106
ENCODING 106
SWIDTH 999 0
DWIDTH 9 0
BBX 5 25 0 -5
BITMAP
00
18
18
18
00
00
00
18
18
18
18
18
18
18
18
18
18
18
18
18
18
18
38
F0
E0
ENDCHAR
STARTCHAR char107
ENCODING 107
SWIDTH 1554 0
DWIDTH 14 0
BBX 11 25 1 -5
BITMAP
0000
0000
C000
C000
C000
C000
C000
C380
C700
C600
CC00
DC00
FC00
F600
E300
C380
C1C0
C0C0
C0E0
C060
0000
0000
0000
0000
0000
ENDCHAR
STARTCHAR char108
ENCODING 108
SWIDTH 777 0
DWIDTH 7 0
BBX 2 25 1 -5
BITMAP
00
C0
C0
C0
C0
C0
C0
C0
C0
C0
C0
C0
C0
C0
C0
C0
C0
C0
C0
C0
00
00
00
00
00
ENDCHAR
STARTCHAR char109
ENCODING 109
SWIDTH 2220 0
DWIDTH 20 0
BBX 16 25 1 -5
BITMAP
0000
0000
0000
0000
0000
0000
0000
C60C
DE3C
DB36
F1E3
E1C3
C183
C183
C183
C183
C183
C183
C183
C183
0000
0000
0000
0000
0000
ENDCHAR
STARTCHAR char110
ENCODING 110
SWIDTH 1665 0
DWIDTH 15 0
BBX 11 25 1 -5
BITMAP
0000
0000
0000
0000
0000
0000
0000
C780
DFC0
D9C0
F0E0
E060
C060
C060
C060
C060
C060
C060
C060
C060
0000
0000
0000
0000
0000
ENDCHAR
STARTCHAR char111
ENCODING 111
SWIDTH 1665 0
DWIDTH 15 0
BBX 12 25 0 -5
BITMAP
0000
0000
0000
0000
0000
0000
0F00
3FC0
79E0
6060
E070
C030
C030
C030
C030
E070
E070
79E0
3FC0
0F00
0000
0000
0000
0000
0000
ENDCHAR
STARTCHAR char112
ENCODING 112
SWIDTH 1776 0
DWIDTH 16 0
BBX 12 25 1 -5
BITMAP
0000
0000
0000
0000
0000
0000
0000
CF00
FFC0
F9E0
E060
E070
C030
C030
C030
E070
E070
F9E0
FFC0
CF00
C000
C000
C000
C000
C000
ENDCHAR
STARTCHAR char113
ENCODING 113
SWIDTH 1665 0
DWIDTH 15 0
BBX 12 25 0 -5
BITMAP
0000
0000
0000
0000
0000
0000
0000
0F30
3FF0
79F0
6070
E070
C030
C030
C030
E070
E070
79F0
3FF0
0F30
0030
0030
0030
0030
0030
ENDCHAR
STARTCHAR char114
ENCODING 114
SWIDTH 1332 0
DWIDTH 12 0
BBX 8 25 1 -5
BITMAP
00
00
00
00
00
00
00
C7
DF
DC
F0
E0
C0
C0
C0
C0
C0
C0
C0
C0
00
00
00
00
00
ENDCHAR
STARTCHAR char115
ENCODING 115
SWIDTH 1443 0
DWIDTH 13 0
BBX 10 25 0 -5
BITMAP
0000
0000
0000
0000
0000
0000
0000
1E00
7F80
61C0
C000
E000
F800
3F00
0380
00C0
80C0
E1C0
7F80
1E00
0000
0000
0000
0000
0000
ENDCHAR
STARTCHAR char116
ENCODING 116
SWIDTH 1110 0
DWIDTH 10 0
BBX 7 25 0 -5
BITMAP
00
30
30
30
30
30
FE
FE
30
30
30
30
30
30
30
30
30
38
38
1E
00
00
00
00
00
ENDCHAR
STARTCHAR char117
ENCODING 117
SWIDTH 1665 0
DWIDTH 15 0
BBX 11 25 1 -5
BITMAP
0000
0000
0000
0000
0000
0000
0000
C060
C060
C060
C060
C060
C060
C060
C060
C060
C060
E0E0
7FE0
3F60
0000
0000
0000
0000
0000
ENDCHAR
STARTCHAR char118
ENCODING 118
SWIDTH 1665 0
DWIDTH 15 0
BBX 12 25 0 -5
BITMAP
0000
0000
0000
0000
0000
0000
0000
C030
C030
C030
6060
6060
30C0
30C0
1980
1980
0900
0F00
0600
0600
0000
0000
0000
0000
0000
ENDCHAR
STARTCHAR char119
ENCODING 119
SWIDTH 2331 0
DWIDTH 21 0
BBX 18 25 0 -5
BITMAP
000000
000000
000000
000000
000000
000000
000000
C0C0C0
E0C1C0
60C180
60C180
31E300
31E300
31E300
1B3600
1B3600
1B3600
0F3C00
0E1C00
061800
000000
000000
000000
000000
000000
ENDCHAR
STARTCHAR char120
ENCODING 120
SWIDTH 1554 0
DWIDTH 14 0
BBX 11 25 0 -5
BITMAP
0000
0000
0000
0000
0000
0000
0000
C060
E0E0
60C0
3180
3B80
1B00
0E00
0E00
1B00
3B80
3180
60C0
E0E0
0000
0000
0000
0000
0000
ENDCHAR
STARTCHAR char121
ENCODING 121
SWIDTH 1776 0
DWIDTH 16 0
BBX 13 25 0 -5
BITMAP
0000
0000
0000
0000
0000
0000
0000
C018
C018
6030
6030
3060
3060
18C0
18C0
0D80
0D80
0700
0700
0600
0600
0C00
1C00
7800
7000
ENDCHAR
STARTCHAR char122
ENCODING 122
SWIDTH 1554 0
DWIDTH 14 0
BBX 11 25 0 -5
BITMAP
0000
0000
0000
0000
0000
0000
0000
FFE0
FFE0
00E0
01C0
0380
0700
0E00
1C00
3800
7000
E000
FFE0
FFE0
0000
0000
0000
0000
0000
ENDCHAR
STARTCHAR char123
ENCODING 123
SWIDTH 1221 0
DWIDTH 11 0
BBX 8 25 1 -5
BITMAP
0F
1C
30
30
30
38
18
18
18
10
20
60
E0
60
20
10
18
18
18
38
30
30
30
1C
0F
ENDCHAR
STARTCHAR char124
ENCODING 124
SWIDTH 777 0
DWIDTH 7 0
BBX 2 25 2 -5
BITMAP
C0
C0
C0
C0
C0
C0
C0
C0
C0
C0
C0
C0
C0
C0
C0
C0
C0
C0
C0
C0
C0
C0
C0
C0
C0
ENDCHAR
STARTCHAR char125
ENCODING 125
SWIDTH 1221 0
DWIDTH 11 0
BBX 8 25 1 -5
BITMAP
F0
38
0C
0C
0C
1C
18
18
18
08
04
06
07
06
04
08
18
18
18
1C
0C
0C
0C
38
F0
ENDCHAR
STARTCHAR char126
ENCODING 126
SWIDTH 1776 0
DWIDTH 16 0
BBX 14 25 0 -5
BITMAP
0000
0000
0000
0000
0000
0000
0000
0000
1C04
3E04
7F0C
6798
C3F8
81F0
80E0
0000
0000
0000
0000
0000
0000
0000
0000
0000
0000
ENDCHAR
ENDFONT
